<svg id="visual" viewBox="0 0 900 600" width="900" height="600" xmlns="http://www.w3.org/2000/svg" xmlns:xlink="http://www.w3.org/1999/xlink" version="1.1"><rect x="0" y="0" width="900" height="600" fill="#e3ebf0"></rect><defs><linearGradient id="grad1_0" x1="33.3%" y1="0%" x2="100%" y2="100%"><stop offset="20%" stop-color="#576ce3" stop-opacity="1"></stop><stop offset="80%" stop-color="#576ce3" stop-opacity="1"></stop></linearGradient></defs><defs><linearGradient id="grad1_1" x1="33.3%" y1="0%" x2="100%" y2="100%"><stop offset="20%" stop-color="#576ce3" stop-opacity="1"></stop><stop offset="80%" stop-color="#5782ea" stop-opacity="1"></stop></linearGradient></defs><defs><linearGradient id="grad1_2" x1="33.3%" y1="0%" x2="100%" y2="100%"><stop offset="20%" stop-color="#6096ee" stop-opacity="1"></stop><stop offset="80%" stop-color="#5782ea" stop-opacity="1"></stop></linearGradient></defs><defs><linearGradient id="grad1_3" x1="33.3%" y1="0%" x2="100%" y2="100%"><stop offset="20%" stop-color="#6096ee" stop-opacity="1"></stop><stop offset="80%" stop-color="#71a9f0" stop-opacity="1"></stop></linearGradient></defs><defs><linearGradient id="grad1_4" x1="33.3%" y1="0%" x2="100%" y2="100%"><stop offset="20%" stop-color="#89bbf0" stop-opacity="1"></stop><stop offset="80%" stop-color="#71a9f0" stop-opacity="1"></stop></linearGradient></defs><defs><linearGradient id="grad1_5" x1="33.3%" y1="0%" x2="100%" y2="100%"><stop offset="20%" stop-color="#89bbf0" stop-opacity="1"></stop><stop offset="80%" stop-color="#a4ccf0" stop-opacity="1"></stop></linearGradient></defs><defs><linearGradient id="grad1_6" x1="33.3%" y1="0%" x2="100%" y2="100%"><stop offset="20%" stop-color="#c2dcef" stop-opacity="1"></stop><stop offset="80%" stop-color="#a4ccf0" stop-opacity="1"></stop></linearGradient></defs><defs><linearGradient id="grad1_7" x1="33.3%" y1="0%" x2="100%" y2="100%"><stop offset="20%" stop-color="#c2dcef" stop-opacity="1"></stop><stop offset="80%" stop-color="#e3ebf0" stop-opacity="1"></stop></linearGradient></defs><defs><linearGradient id="grad2_0" x1="0%" y1="0%" x2="66.7%" y2="100%"><stop offset="20%" stop-color="#576ce3" stop-opacity="1"></stop><stop offset="80%" stop-color="#576ce3" stop-opacity="1"></stop></linearGradient></defs><defs><linearGradient id="grad2_1" x1="0%" y1="0%" x2="66.7%" y2="100%"><stop offset="20%" stop-color="#5782ea" stop-opacity="1"></stop><stop offset="80%" stop-color="#576ce3" stop-opacity="1"></stop></linearGradient></defs><defs><linearGradient id="grad2_2" x1="0%" y1="0%" x2="66.7%" y2="100%"><stop offset="20%" stop-color="#5782ea" stop-opacity="1"></stop><stop offset="80%" stop-color="#6096ee" stop-opacity="1"></stop></linearGradient></defs><defs><linearGradient id="grad2_3" x1="0%" y1="0%" x2="66.7%" y2="100%"><stop offset="20%" stop-color="#71a9f0" stop-opacity="1"></stop><stop offset="80%" stop-color="#6096ee" stop-opacity="1"></stop></linearGradient></defs><defs><linearGradient id="grad2_4" x1="0%" y1="0%" x2="66.7%" y2="100%"><stop offset="20%" stop-color="#71a9f0" stop-opacity="1"></stop><stop offset="80%" stop-color="#89bbf0" stop-opacity="1"></stop></linearGradient></defs><defs><linearGradient id="grad2_5" x1="0%" y1="0%" x2="66.7%" y2="100%"><stop offset="20%" stop-color="#a4ccf0" stop-opacity="1"></stop><stop offset="80%" stop-color="#89bbf0" stop-opacity="1"></stop></linearGradient></defs><defs><linearGradient id="grad2_6" x1="0%" y1="0%" x2="66.7%" y2="100%"><stop offset="20%" stop-color="#a4ccf0" stop-opacity="1"></stop><stop offset="80%" stop-color="#c2dcef" stop-opacity="1"></stop></linearGradient></defs><defs><linearGradient id="grad2_7" x1="0%" y1="0%" x2="66.7%" y2="100%"><stop offset="20%" stop-color="#e3ebf0" stop-opacity="1"></stop><stop offset="80%" stop-color="#c2dcef" stop-opacity="1"></stop></linearGradient></defs><g transform="translate(900, 0)"><path d="M0 486.7C-63.7 480.5 -127.5 474.2 -186.3 449.7C-245.1 425.2 -298.9 382.5 -331.6 331.6C-364.3 280.7 -375.9 221.6 -398.2 164.9C-420.5 108.3 -453.6 54.1 -486.7 0L0 0Z" fill="#d2e4f0"></path><path d="M0 425.9C-55.8 420.4 -111.5 414.9 -163 393.5C-214.4 372.1 -261.6 334.7 -290.2 290.2C-318.8 245.6 -328.9 193.9 -348.4 144.3C-368 94.8 -396.9 47.4 -425.9 0L0 0Z" fill="#b3d4f0"></path><path d="M0 365.1C-47.8 360.3 -95.6 355.6 -139.7 337.3C-183.8 318.9 -224.2 286.9 -248.7 248.7C-273.2 210.5 -281.9 166.2 -298.6 123.7C-315.4 81.2 -340.2 40.6 -365.1 0L0 0Z" fill="#96c4f0"></path><path d="M0 304.2C-39.8 300.3 -79.7 296.4 -116.4 281.1C-153.2 265.8 -186.8 239.1 -207.3 207.3C-227.7 175.5 -234.9 138.5 -248.9 103.1C-262.8 67.7 -283.5 33.8 -304.2 0L0 0Z" fill="#7cb2f0"></path><path d="M0 243.4C-31.9 240.2 -63.7 237.1 -93.1 224.8C-122.5 212.6 -149.5 191.3 -165.8 165.8C-182.2 140.4 -187.9 110.8 -199.1 82.5C-210.3 54.1 -226.8 27.1 -243.4 0L0 0Z" fill="#68a0ef"></path><path d="M0 182.5C-23.9 180.2 -47.8 177.8 -69.9 168.6C-91.9 159.5 -112.1 143.5 -124.4 124.4C-136.6 105.3 -141 83.1 -149.3 61.9C-157.7 40.6 -170.1 20.3 -182.5 0L0 0Z" fill="#5a8ced"></path><path d="M0 121.7C-15.9 120.1 -31.9 118.5 -46.6 112.4C-61.3 106.3 -74.7 95.6 -82.9 82.9C-91.1 70.2 -94 55.4 -99.5 41.2C-105.1 27.1 -113.4 13.5 -121.7 0L0 0Z" fill="#5677e7"></path><path d="M0 60.8C-8 60.1 -15.9 59.3 -23.3 56.2C-30.6 53.2 -37.4 47.8 -41.5 41.5C-45.5 35.1 -47 27.7 -49.8 20.6C-52.6 13.5 -56.7 6.8 -60.8 0L0 0Z" fill="#576ce3"></path></g><g transform="translate(0, 600)"><path d="M0 -486.7C71 -486.8 142 -486.8 186.3 -449.7C230.6 -412.6 248.2 -338.4 292 -292C335.8 -245.7 405.7 -227.3 442.5 -183.3C479.3 -139.3 483 -69.6 486.7 0L0 0Z" fill="#d2e4f0"></path><path d="M0 -425.9C62.1 -425.9 124.2 -426 163 -393.5C201.8 -361 217.2 -296.1 255.5 -255.5C293.8 -215 355 -198.9 387.2 -160.4C419.4 -121.9 422.7 -60.9 425.9 0L0 0Z" fill="#b3d4f0"></path><path d="M0 -365.1C53.2 -365.1 106.5 -365.1 139.7 -337.3C172.9 -309.4 186.2 -253.8 219 -219C251.9 -184.3 304.3 -170.5 331.9 -137.5C359.5 -104.5 362.3 -52.2 365.1 0L0 0Z" fill="#96c4f0"></path><path d="M0 -304.2C44.4 -304.2 88.7 -304.3 116.4 -281.1C144.1 -257.9 155.2 -211.5 182.5 -182.5C209.9 -153.6 253.6 -142.1 276.6 -114.6C299.6 -87.1 301.9 -43.5 304.2 0L0 0Z" fill="#7cb2f0"></path><path d="M0 -243.4C35.5 -243.4 71 -243.4 93.1 -224.8C115.3 -206.3 124.1 -169.2 146 -146C167.9 -122.9 202.9 -113.7 221.3 -91.7C239.7 -69.6 241.5 -34.8 243.4 0L0 0Z" fill="#68a0ef"></path><path d="M0 -182.5C26.6 -182.5 53.2 -182.6 69.9 -168.6C86.5 -154.7 93.1 -126.9 109.5 -109.5C125.9 -92.1 152.1 -85.2 166 -68.7C179.8 -52.2 181.1 -26.1 182.5 0L0 0Z" fill="#5a8ced"></path><path d="M0 -121.7C17.7 -121.7 35.5 -121.7 46.6 -112.4C57.6 -103.1 62.1 -84.6 73 -73C84 -61.4 101.4 -56.8 110.6 -45.8C119.8 -34.8 120.8 -17.4 121.7 0L0 0Z" fill="#5677e7"></path><path d="M0 -60.8C8.9 -60.8 17.7 -60.9 23.3 -56.2C28.8 -51.6 31 -42.3 36.5 -36.5C42 -30.7 50.7 -28.4 55.3 -22.9C59.9 -17.4 60.4 -8.7 60.8 0L0 0Z" fill="#576ce3"></path></g></svg>