<svg id="visual" viewBox="0 0 900 600" width="900" height="600" xmlns="http://www.w3.org/2000/svg" xmlns:xlink="http://www.w3.org/1999/xlink" version="1.1"><rect x="0" y="0" width="900" height="600" fill="#f9fafb"></rect><path d="M0 347L129 347L129 274L257 274L257 347L386 347L386 361L514 361L514 307L643 307L643 363L771 363L771 250L900 250L900 339L900 601L900 601L771 601L771 601L643 601L643 601L514 601L514 601L386 601L386 601L257 601L257 601L129 601L129 601L0 601Z" fill="#ffffff"></path><path d="M0 394L129 394L129 455L257 455L257 369L386 369L386 422L514 422L514 385L643 385L643 445L771 445L771 455L900 455L900 405L900 601L900 601L771 601L771 601L643 601L643 601L514 601L514 601L386 601L386 601L257 601L257 601L129 601L129 601L0 601Z" fill="#fcfcfd"></path><path d="M0 465L129 465L129 470L257 470L257 444L386 444L386 543L514 543L514 546L643 546L643 544L771 544L771 443L900 443L900 539L900 601L900 601L771 601L771 601L643 601L643 601L514 601L514 601L386 601L386 601L257 601L257 601L129 601L129 601L0 601Z" fill="#f9fafb"></path></svg>