<svg id="visual" viewBox="0 0 900 600" width="900" height="600" xmlns="http://www.w3.org/2000/svg" xmlns:xlink="http://www.w3.org/1999/xlink" version="1.1"><rect x="0" y="0" width="900" height="600" fill="#f9fafb"></rect><path d="M0 297L129 297L129 289L257 289L257 275L386 275L386 338L514 338L514 294L643 294L643 294L771 294L771 326L900 326L900 277L900 601L900 601L771 601L771 601L643 601L643 601L514 601L514 601L386 601L386 601L257 601L257 601L129 601L129 601L0 601Z" fill="#ffffff"></path><path d="M0 401L129 401L129 369L257 369L257 359L386 359L386 419L514 419L514 345L643 345L643 368L771 368L771 463L900 463L900 400L900 601L900 601L771 601L771 601L643 601L643 601L514 601L514 601L386 601L386 601L257 601L257 601L129 601L129 601L0 601Z" fill="#fbfcff"></path><path d="M0 467L129 467L129 530L257 530L257 482L386 482L386 493L514 493L514 507L643 507L643 499L771 499L771 495L900 495L900 442L900 601L900 601L771 601L771 601L643 601L643 601L514 601L514 601L386 601L386 601L257 601L257 601L129 601L129 601L0 601Z" fill="#f7f9ff"></path></svg>